<svg width="18" height="18" viewBox="0 0 18 18" fill="none" xmlns="http://www.w3.org/2000/svg">
<g id="Message 28">
<path id="Vector" d="M14.3208 14.3033C12.6171 16.007 9.00407 17.4801 6.07172 15.6679C5.90853 15.5671 5.82694 15.5167 5.76524 15.4922C5.64728 15.4455 5.55783 15.432 5.43133 15.4418C5.36517 15.4469 5.29021 15.4663 5.1403 15.5052C4.19695 15.7497 3.72528 15.8719 3.38547 15.8028C2.79569 15.6827 2.33477 15.2218 2.21474 14.632C2.14558 14.2922 2.26784 13.8206 2.51234 12.8772C2.55121 12.7273 2.57064 12.6523 2.57573 12.5859C2.58544 12.4594 2.57165 12.3689 2.52471 12.251C2.50008 12.1892 2.44973 12.1082 2.34902 11.9461C0.530667 9.02017 1.93792 5.47299 3.71421 3.6967C6.64314 0.767767 11.3919 0.767767 14.3208 3.6967C17.2497 6.62563 17.2497 11.3744 14.3208 14.3033Z" stroke="#203656" stroke-width="1.125"/>
<g id="Vector_2">
<path d="M6.78955 8.89355C6.78955 9.30777 6.45376 9.64355 6.03955 9.64355C5.62534 9.64355 5.28955 9.30777 5.28955 8.89355C5.28955 8.47934 5.62534 8.14355 6.03955 8.14355C6.45376 8.14355 6.78955 8.47934 6.78955 8.89355Z" fill="#203656"/>
<path d="M9.78955 8.89355C9.78955 9.30777 9.45376 9.64355 9.03955 9.64355C8.62534 9.64355 8.28955 9.30777 8.28955 8.89355C8.28955 8.47934 8.62534 8.14355 9.03955 8.14355C9.45376 8.14355 9.78955 8.47934 9.78955 8.89355Z" fill="#203656"/>
<path d="M12.7896 8.89355C12.7896 9.30777 12.4538 9.64355 12.0396 9.64355C11.6253 9.64355 11.2896 9.30777 11.2896 8.89355C11.2896 8.47934 11.6253 8.14355 12.0396 8.14355C12.4538 8.14355 12.7896 8.47934 12.7896 8.89355Z" fill="#203656"/>
</g>
</g>
</svg>
