<svg width="32" height="32" viewBox="0 0 32 32" fill="none" xmlns="http://www.w3.org/2000/svg">
<path fill-rule="evenodd" clip-rule="evenodd" d="M14.7775 1.02822C11.947 1.27275 9.33871 2.25024 7.08468 3.91122C5.97106 4.73188 4.81563 5.88112 3.96105 7.01816C2.50803 8.95138 1.5292 11.2989 1.15708 13.7427C0.947639 15.1183 0.947639 16.8781 1.15708 18.2537C1.69753 21.8029 3.47389 25.0208 6.18614 27.364C8.61673 29.4638 11.5643 30.6944 14.8234 30.97C15.2967 31.01 16.7065 31.01 17.1805 30.97C20.3642 30.7014 23.1921 29.5473 25.6446 27.5154C26.0977 27.1401 27.1411 26.0964 27.5163 25.6433C29.5471 23.1908 30.7007 20.3627 30.97 17.177C31.01 16.7032 31.01 15.2931 30.97 14.8193C30.805 12.8676 30.3315 11.125 29.5057 9.43033C28.9573 8.30513 28.3441 7.35476 27.5301 6.36839C27.1401 5.89578 26.1018 4.85727 25.6293 4.46711C23.178 2.44302 20.3594 1.29519 17.1805 1.02639C16.754 0.990317 15.2026 0.991511 14.7775 1.02822ZM17.4101 4.37541C19.2693 4.61975 20.956 5.24439 22.4611 6.24591C24.9325 7.89054 26.6883 10.3951 27.3746 13.255C27.6146 14.2551 27.6803 14.8446 27.6803 15.9982C27.6803 17.1762 27.6129 17.7637 27.3588 18.8002C26.3971 22.7231 23.4422 25.8918 19.5835 27.138C18.8815 27.3648 18.1916 27.5178 17.3948 27.6235C16.889 27.6906 15.2389 27.7006 14.7469 27.6396C12.8571 27.405 11.2162 26.8237 9.69114 25.8484C7.18466 24.2454 5.3532 21.6883 4.64622 18.8046C4.39099 17.7635 4.32364 17.1776 4.32364 15.9982C4.32364 15.0221 4.34302 14.7699 4.47902 13.9773C4.98565 11.0246 6.68082 8.31027 9.12966 6.53064C10.7686 5.33955 12.7529 4.57229 14.7316 4.36454C14.8999 4.34687 15.0859 4.32688 15.1448 4.32014C15.4238 4.2882 17.0481 4.32783 17.4101 4.37541ZM22.1101 9.50853C21.7858 9.55896 21.4716 9.68477 21.1753 9.88276C21.0996 9.93337 19.3844 11.6262 17.3638 13.6446L13.6901 17.3144L12.3282 15.9505C10.8562 14.4761 10.7572 14.3928 10.2929 14.2349C9.96664 14.1239 9.47453 14.0986 9.13073 14.1751C8.42042 14.3332 7.81517 14.8736 7.57334 15.5659C7.45609 15.9015 7.42548 16.4369 7.50434 16.7734C7.57223 17.0631 7.72964 17.3881 7.90774 17.6064C8.07154 17.807 10.2434 19.9583 11.5983 21.2619C12.0873 21.7324 12.5168 22.1196 12.6158 22.1792C13.2464 22.5585 14.0301 22.5871 14.7163 22.2559L15.0071 22.1155L19.6174 17.5029L24.2276 12.8903L24.3535 12.63C24.518 12.2901 24.5807 12.0155 24.5809 11.6348C24.5814 10.6499 23.924 9.7996 22.9733 9.55535C22.7392 9.49521 22.3363 9.47335 22.1101 9.50853Z" fill="#F0F2F5"/>
</svg>
