<svg width="208" height="32" viewBox="0 0 208 32" fill="none" xmlns="http://www.w3.org/2000/svg">
<path fill-rule="evenodd" clip-rule="evenodd" d="M13.233 0.225068C6.85337 1.33841 1.76526 6.34634 0.404882 12.8515C-0.134961 15.4323 -0.134961 16.5086 0.404882 19.0895C1.58661 24.7396 5.34337 29.0571 10.8561 31.1006L12.9814 31.8884L29.1063 31.9811C39.4549 32.0406 45.9941 31.9584 47.3605 31.7513C55.7651 30.4773 61.9823 22.1139 60.7255 13.7723C60.3361 11.1872 58.9171 7.97906 57.1889 5.77663C55.7125 3.89498 52.5742 1.72499 49.9385 0.763245C47.994 0.0534582 47.988 0.0534576 31.3851 0.00433947C22.2506 -0.022342 14.0823 0.076804 13.233 0.225068ZM77.75 4.65358C76.0784 6.18382 75.5969 7.25563 75.602 9.43532C75.6097 12.6704 77.5492 16.8758 80.8134 20.7352C82.9988 23.3191 85.4759 25.2041 88.8407 26.8437C91.2116 27.9992 92.0364 28.2485 93.8091 28.3464C95.4029 28.434 96.1887 28.3331 96.9512 27.9422C99.127 26.8268 100.212 25.2701 100.212 23.2642C100.212 22.1715 100.074 21.9362 98.9403 21.0991C96.807 19.5233 95.5555 19.0024 93.9052 19.0024C92.4751 19.0024 92.2787 19.0952 91.214 20.2753L90.0655 21.5484L88.425 20.4035C86.5793 19.1155 84.5471 17.0177 83.3091 15.1221L82.4784 13.8502L83.7143 12.4916C84.7652 11.3364 84.9496 10.9386 84.9439 9.83736C84.9364 8.36776 84.2559 6.70775 82.8904 4.82792C82.0062 3.61088 81.8715 3.53933 80.4609 3.53933C79.1606 3.53933 78.8096 3.68365 77.75 4.65358ZM191.083 4.56747C187.709 6.00584 185.869 7.77895 184.356 11.0508C183.644 12.5889 183.553 13.1498 183.553 15.9705C183.553 18.8997 183.626 19.3114 184.476 21.1248C185.696 23.7263 187.703 25.7735 190.218 26.9808C192.101 27.8846 192.443 27.9468 195.523 27.9468C198.559 27.9468 198.953 27.8777 200.61 27.0548C204.164 25.2892 206.683 21.854 207.385 17.8148C208.265 12.752 205.384 7.25229 200.614 4.89099C199.06 4.12177 198.424 3.992 195.826 3.91347C193.196 3.83404 192.615 3.91408 191.083 4.56747ZM130.586 5.20237C129.927 5.45008 129.366 5.65474 129.338 5.65717C129.311 5.65959 129.008 6.12136 128.665 6.68289C128.074 7.65191 128.042 8.1252 128.042 15.9705C128.042 27.5729 127.571 27.0372 137.768 27.0372C144.968 27.0372 145.259 26.9732 146.5 25.1213C146.994 24.3839 147.044 23.5328 147.044 15.9705C147.044 8.40808 146.994 7.55701 146.5 6.81963C145.278 4.99559 144.918 4.91069 138.067 4.82792C133.104 4.76819 131.531 4.84702 130.586 5.20237ZM151.383 9.3483C150.149 10.2227 149.038 11.0811 148.915 11.256C148.792 11.431 148.724 13.6176 148.765 16.1154L148.84 20.657L150.935 22.2567C153.104 23.913 154.051 24.3481 154.829 24.0455C155.223 23.8924 155.273 22.7979 155.204 15.9022L155.124 7.9357L154.376 7.84747C153.866 7.78713 152.913 8.26528 151.383 9.3483ZM35.5147 8.75434C36.3763 9.62724 35.77 10.4353 29.3742 16.9401C24.3468 22.0529 22.7042 23.5504 22.1222 23.5504C20.9937 23.5504 14.6272 17.0605 14.6272 15.9101C14.6272 15.113 15.3134 14.4545 16.1441 14.4545C16.3416 14.4545 17.7687 15.7118 19.3152 17.2484L22.1273 20.0424L27.8773 14.2165C33.7435 8.27316 34.5033 7.72953 35.5147 8.75434ZM196.679 9.01903C197.202 9.43562 197.468 9.93893 197.468 10.5129C197.468 11.4722 196.29 12.6353 195.319 12.6353C194.556 12.6353 193.278 11.3061 193.278 10.5129C193.278 9.71972 194.556 8.3905 195.319 8.3905C195.634 8.3905 196.246 8.67338 196.679 9.01903ZM46.3475 15.6809C46.3475 16.5902 43.4409 20.8231 42.8224 20.8146C42.1862 20.8065 39.0557 16.0911 39.285 15.4862C39.4103 15.1552 40.2111 15.0609 42.8969 15.0609C46.1733 15.0609 46.3475 15.0921 46.3475 15.6809ZM196.72 19.4572V23.3988H195.373H194.026L193.942 19.778C193.895 17.7866 193.927 15.9711 194.013 15.7431C194.121 15.4605 194.576 15.3586 195.445 15.4223L196.72 15.5157V19.4572Z" fill="#0084FA"/>
</svg>
