<svg width="59" height="59" viewBox="0 0 59 59" fill="none" xmlns="http://www.w3.org/2000/svg">
<circle cx="29.5" cy="29.5" r="29.5" fill="url(#paint0_linear)"/>
<mask id="mask0" mask-type="alpha" maskUnits="userSpaceOnUse" x="0" y="0" width="59" height="59">
<circle cx="29.5" cy="29.5" r="29.5" fill="#C4C4C4"/>
</mask>
<g mask="url(#mask0)">
<path d="M20.7982 40.63H26.2232V63.1935C26.2232 63.639 26.5805 64 27.0215 64H36.2197C36.6607 64 37.0179 63.639 37.0179 63.1935V40.7363H43.2544C43.6599 40.7363 44.0011 40.4289 44.0474 40.0219L44.9946 31.7152C45.0206 31.4866 44.9489 31.2577 44.7976 31.0863C44.6461 30.9147 44.4293 30.8165 44.2018 30.8165H37.0183V25.6094C37.0183 24.0397 37.8548 23.2437 39.5049 23.2437C39.7401 23.2437 44.2018 23.2437 44.2018 23.2437C44.6427 23.2437 45 22.8826 45 22.4373V14.8124C45 14.3669 44.6427 14.006 44.2018 14.006H37.7289C37.6832 14.0037 37.5818 14 37.4324 14C36.3093 14 32.4054 14.2227 29.3217 17.0889C25.9049 20.265 26.3798 24.0679 26.4933 24.7273V30.8163H20.7982C20.3573 30.8163 20 31.1773 20 31.6227V39.8234C20 40.2689 20.3573 40.63 20.7982 40.63Z" fill="white"/>
</g>
<defs>
<linearGradient id="paint0_linear" x1="29.5" y1="0" x2="29.5" y2="59" gradientUnits="userSpaceOnUse">
<stop stop-color="#01ADF9"/>
<stop offset="1" stop-color="#0070E1"/>
</linearGradient>
</defs>
</svg>
