<svg width="103" height="33" viewBox="0 0 103 33" fill="none" xmlns="http://www.w3.org/2000/svg">
<path fill-rule="evenodd" clip-rule="evenodd" d="M11.8458 0.965927C4.48966 3.5327 -0.0547805 9.50743 0.000498643 16.54C0.0773868 26.3905 7.90139 33.5321 17.916 32.8924C23.3233 32.547 27.526 30.2156 30.5176 25.9001C34.1881 20.6064 34.5967 15.0493 31.7272 9.4352C28.123 2.38345 18.9653 -1.51781 11.8458 0.965927ZM86.76 0.455913C86.448 0.654415 85.959 2.53871 85.6736 4.64314C85.2374 7.85701 84.8052 8.99741 82.9739 11.7676L80.7939 15.066V22.0499C80.7939 31.1358 80.4145 30.7354 89.2265 30.9531C93.1965 31.0513 96.6238 30.8956 97.75 30.5659C99.4245 30.0755 99.6692 29.796 99.9547 28.0497C100.148 26.8705 100.651 25.8893 101.214 25.5945C101.813 25.2815 102.152 24.5656 102.152 23.6149C102.152 22.7958 102.392 21.6863 102.686 21.1488C103.027 20.5273 103.094 18.7407 102.87 16.2359C102.432 11.3293 101.833 10.8228 96.0791 10.497L92.101 10.272L92.098 7.75579C92.092 2.21296 89.5215 -1.30211 86.76 0.455913ZM11.9348 12.3508C12.7755 13.2593 12.7795 13.3998 12.0011 14.5619C11 16.0556 9.54167 16.1543 8.17728 14.8203C6.8928 13.5644 6.9124 13.0883 8.28935 12.1459C9.78389 11.122 10.8528 11.1824 11.9348 12.3508ZM25.163 11.9705C25.4947 12.2948 25.7661 13.0245 25.7661 13.592C25.7661 15.9686 22.8247 16.6285 21.4397 14.5619C20.6613 13.3998 20.6653 13.2593 21.5061 12.3508C22.5142 11.262 24.253 11.0807 25.163 11.9705ZM69.9894 22.9275V33H73.7584H77.5274V22.9275V12.8549H73.7584H69.9894V22.9275ZM11.3382 20.3214C14.3499 21.8578 18.7301 21.8328 22.1699 20.2595C24.9897 18.9697 26.145 19.2665 25.5415 21.1252C24.569 24.1214 15.4606 25.4608 10.6141 23.321C8.36975 22.3295 7.23754 20.8226 7.923 19.7382C8.38031 19.0154 8.97682 19.1171 11.3382 20.3214Z" fill="#1C92F7"/>
</svg>
