<svg width="189" height="32" viewBox="0 0 189 32" fill="none" xmlns="http://www.w3.org/2000/svg">
<path fill-rule="evenodd" clip-rule="evenodd" d="M11.149 0.534059C6.96608 2.06606 3.40677 5.15757 1.21391 9.16364C-0.333552 11.9903 -0.420593 19.8317 1.06258 22.8123C2.35535 25.4103 6.73463 29.6253 9.33797 30.7781C11.8018 31.8683 18.2721 32.0795 21.9021 31.1881C24.734 30.4926 28.7661 26.9751 30.7631 23.4582C32.1231 21.0637 32.226 20.5273 32.226 15.8179C32.226 11.1934 32.1108 10.562 30.9011 8.55441C29.2804 5.86568 25.8779 2.74041 23.0263 1.32177C20.3408 -0.014395 13.8261 -0.446597 11.149 0.534059ZM122.73 1.60685C115.011 2.79155 110.511 3.79005 108.595 4.74321C105.196 6.43488 105.093 8.94223 107.878 22.3299C108.939 27.4358 109.259 28.2737 110.585 29.4347C112.383 31.0082 113.99 31.4669 116.253 31.0531C119.161 30.521 120.339 29.1776 121.696 24.8464C123.371 19.4989 125.043 17.114 129.819 13.2604C133.836 10.0189 133.857 9.98994 133.85 7.72425C133.841 5.08473 133.123 3.4876 131.384 2.24309C129.606 0.970121 127.763 0.834574 122.73 1.60685ZM61.0205 2.88368C59.7114 4.16051 59.5403 5.04083 58.6931 14.8532C57.9839 23.0679 57.973 28.729 58.6644 29.5413C59.4735 30.4926 63.1283 31.1322 71.1836 31.7327C78.3739 32.2686 79.4516 32.1003 80.4481 30.2832C81.1395 29.0237 82.3665 17.4382 82.5356 10.576C82.6682 5.1923 82.6474 5.07556 81.4085 4.16147C79.9684 3.0993 76.3176 2.52094 67.9996 2.03808C62.3251 1.70863 62.2109 1.72262 61.0205 2.88368ZM162.745 2.7216C160.71 3.9584 159.189 5.91103 158.601 8.04262C157.244 12.9609 157.629 22.7467 159.304 25.9052C159.77 26.7846 161.034 27.7826 162.657 28.5544C165.896 30.0951 172.931 30.6416 179.741 29.8819C187.894 28.9721 189 27.2057 189 15.0944C189 8.50231 188.864 7.10923 188.068 5.54636C186.451 2.37092 185.365 2.08873 174.163 1.93196C165.116 1.8051 164.142 1.87263 162.745 2.7216ZM52.5379 3.55176C51.5265 4.53869 51.5309 7.97364 52.5576 18.1671C53.4998 27.5279 54.1471 30.4569 55.3207 30.6759C56.0324 30.8085 56.0957 30.6112 55.7347 29.3836C55.4953 28.5689 55.5002 25.2309 55.747 21.7559C55.9879 18.3571 56.3365 12.7009 56.5225 9.18535L56.8598 2.79396H55.0873C54.1125 2.79396 52.9657 3.13499 52.5379 3.55176ZM72.0377 3.96853C75.9818 4.3332 79.5999 4.78469 80.0787 4.97185C80.5569 5.15901 81.0866 5.84928 81.2552 6.5053C81.551 7.65527 81.2216 12.4476 80.6232 15.6988L80.3343 17.2674L78.4798 15.2289L76.6247 13.1905L74.7024 14.5792C73.6445 15.3433 72.1687 16.5169 71.422 17.1874C70.1574 18.3219 70.1149 18.4816 70.8038 19.5066C71.2103 20.1125 71.5431 20.9281 71.5431 21.3198C71.5431 22.8981 70.4596 22.4761 67.9744 19.9292L65.3612 17.251L63.8775 18.2119C63.0615 18.7401 61.8934 19.5293 61.2811 19.9658L60.1684 20.7593L60.1852 18.168C60.2129 13.8913 61.4661 4.79965 62.1367 4.01194C62.8864 3.13017 62.9656 3.12969 72.0377 3.96853ZM17.1247 7.10344C17.4061 7.61668 17.6366 9.44438 17.6366 11.1655V14.2941L20.9749 14.6028C25.8289 15.0514 25.772 15.0365 25.9387 15.8816C26.1341 16.8719 24.7028 17.2501 20.7276 17.2583L17.6366 17.265L17.6312 19.5563C17.6218 23.4302 17.1144 25.4653 16.1569 25.4653C15.4942 25.4653 15.2311 24.8947 14.9897 22.9329C14.8181 21.5398 14.6757 19.6947 14.6737 18.8327L14.6693 17.265L11.0838 17.2578C7.24452 17.2496 5.95225 16.8188 6.39438 15.694C6.72128 14.8638 8.90672 14.3708 12.2583 14.3708H14.6693V11.2036C14.6693 8.10002 15.238 6.17054 16.1529 6.17054C16.4057 6.17054 16.8428 6.5902 17.1247 7.10344ZM64.6194 8.58239C63.383 9.78831 63.3864 10.0792 64.6555 11.6527C65.8552 13.1408 67.1065 13.2758 68.2519 12.0415C70.7405 9.35948 67.24 6.02631 64.6194 8.58239ZM170.344 9.33343C170.993 9.77673 171.443 10.59 171.443 11.3184C171.443 12.5349 171.404 12.5479 168.683 12.2161C166.386 11.9363 165.755 12.0279 164.918 12.7636C163.38 14.1147 162.926 15.719 163.555 17.5795C164.158 19.3614 165.278 20.1592 167.178 20.1592C168.242 20.1592 168.476 19.8689 168.831 18.1092C169.184 16.3577 169.44 16.0369 170.591 15.9067C171.934 15.7542 171.938 15.7624 171.938 18.8665C171.938 21.9725 171.934 21.9807 170.137 22.8123C167.328 24.1123 164.215 23.5773 162.217 21.4515C158.346 17.3311 159.263 11.8398 164.272 9.14386C165.722 8.36387 169.078 8.46855 170.344 9.33343ZM176.866 9.51529C177.414 10.5133 177.47 19.4449 176.945 21.8417C176.602 23.4046 175.068 24.079 174.354 22.9801C173.875 22.2426 173.756 10.5148 174.216 9.34549C174.633 8.28621 176.248 8.38992 176.866 9.51529ZM186.775 9.30594C187.63 10.3112 186.586 11.4766 184.83 11.4766C183.206 11.4766 181.55 12.575 182.03 13.3328C182.224 13.6386 182.789 13.8884 183.287 13.8884C184.683 13.8884 186.498 15.5338 186.131 16.4662C185.91 17.0267 185.222 17.265 183.823 17.265H181.829V19.8592C181.829 22.9681 180.84 24.2246 179.455 22.8745C178.28 21.7289 178.194 9.77191 179.356 9.05511C180.592 8.292 186.07 8.47771 186.775 9.30594ZM127.638 9.98946C128.307 10.7101 128.379 11.1264 127.967 11.877C126.97 13.6945 124.461 13.5686 124.461 11.7009C124.461 9.03822 125.991 8.21434 127.638 9.98946ZM115.971 12.8586C116.192 14.38 115.417 15.0442 113.864 14.6641C112.955 14.4417 112.591 14.0332 112.591 13.2363C112.591 11.7718 113.028 11.4018 114.551 11.575C115.44 11.6763 115.854 12.0506 115.971 12.8586ZM132.621 14.4842C130.342 16.0369 126.979 19.2698 125.927 20.9195C124.951 22.451 123.23 28.7671 123.672 29.1984C124.141 29.6556 128.25 26.9684 130.044 25.0312C133.064 21.7713 135.04 16.9872 134.384 14.5252L134.104 13.4736L132.621 14.4842ZM117.166 20.3773C119.611 22.573 120.178 24.0182 118.593 24.0182C116.68 24.0182 113.043 19.9499 113.837 18.6981C114.307 17.9548 114.673 18.1396 117.166 20.3773Z" fill="#1C92F7"/>
</svg>
