<svg width="46" height="32" viewBox="0 0 46 32" fill="none" xmlns="http://www.w3.org/2000/svg">
<g clip-path="url(#clip0)">
<path fill-rule="evenodd" clip-rule="evenodd" d="M-52.767 0.225068C-59.1466 1.33841 -64.2347 6.34634 -65.5951 12.8515C-66.135 15.4323 -66.135 16.5086 -65.5951 19.0895C-64.4134 24.7396 -60.6566 29.0571 -55.1439 31.1006L-53.0186 31.8884L-36.8937 31.9811C-26.5451 32.0406 -20.0059 31.9584 -18.6395 31.7513C-10.2349 30.4773 -4.0177 22.1139 -5.27454 13.7723C-5.66386 11.1872 -7.08289 7.97906 -8.81105 5.77663C-10.2875 3.89498 -13.4258 1.72499 -16.0615 0.763245C-18.006 0.0534582 -18.012 0.0534576 -34.6149 0.00433947C-43.7494 -0.022342 -51.9177 0.076804 -52.767 0.225068ZM11.75 4.65358C10.0784 6.18382 9.59688 7.25563 9.60197 9.43532C9.60975 12.6704 11.5492 16.8758 14.8134 20.7352C16.9988 23.3191 19.4759 25.204 22.8407 26.8437C25.2116 27.9992 26.0364 28.2485 27.8091 28.3464C29.4029 28.434 30.1887 28.3331 30.9512 27.9422C33.127 26.8268 34.2121 25.2701 34.2121 23.2642C34.2121 22.1715 34.0742 21.9362 32.9403 21.099C30.807 19.5233 29.5555 19.0024 27.9052 19.0024C26.4751 19.0024 26.2787 19.0952 25.214 20.2753L24.0655 21.5484L22.425 20.4035C20.5793 19.1155 18.5471 17.0177 17.3091 15.1221L16.4784 13.8502L17.7143 12.4916C18.7652 11.3364 18.9496 10.9386 18.9439 9.83736C18.9364 8.36776 18.2559 6.70775 16.8904 4.82792C16.0062 3.61088 15.8715 3.53933 14.4609 3.53933C13.1606 3.53933 12.8096 3.68365 11.75 4.65358ZM125.083 4.56747C121.709 6.00584 119.869 7.77895 118.356 11.0508C117.644 12.5889 117.553 13.1498 117.553 15.9705C117.553 18.8997 117.626 19.3114 118.476 21.1248C119.696 23.7263 121.703 25.7735 124.218 26.9808C126.101 27.8846 126.443 27.9468 129.523 27.9468C132.559 27.9468 132.953 27.8777 134.61 27.0548C138.164 25.2892 140.683 21.854 141.385 17.8148C142.265 12.752 139.384 7.25229 134.614 4.89098C133.06 4.12177 132.424 3.992 129.826 3.91347C127.196 3.83404 126.615 3.91408 125.083 4.56747ZM64.5858 5.20237C63.9274 5.45008 63.366 5.65474 63.3385 5.65717C63.3107 5.65959 63.0075 6.12136 62.6652 6.68289C62.0739 7.65191 62.0422 8.1252 62.0422 15.9705C62.0422 27.5729 61.5714 27.0372 71.7677 27.0372C78.9682 27.0372 79.2591 26.9732 80.5001 25.1213C80.9938 24.3839 81.0444 23.5328 81.0444 15.9705C81.0444 8.40808 80.9938 7.55701 80.5001 6.81963C79.2779 4.99559 78.9179 4.91069 72.067 4.82792C67.1036 4.76819 65.5311 4.84702 64.5858 5.20237ZM85.3835 9.3483C84.1491 10.2227 83.0383 11.0811 82.915 11.256C82.7917 11.431 82.7244 13.6176 82.7654 16.1154L82.8399 20.657L84.9346 22.2567C87.1036 23.913 88.0507 24.3481 88.829 24.0455C89.2225 23.8924 89.2728 22.7979 89.204 15.9022L89.1241 7.9357L88.376 7.84747C87.866 7.78713 86.9129 8.26528 85.3835 9.3483ZM-30.4853 8.75434C-29.6237 9.62724 -30.23 10.4353 -36.6258 16.9401C-41.6532 22.0529 -43.2958 23.5504 -43.8778 23.5504C-45.0063 23.5504 -51.3728 17.0605 -51.3728 15.9101C-51.3728 15.113 -50.6866 14.4545 -49.8559 14.4545C-49.6584 14.4545 -48.2313 15.7118 -46.6848 17.2484L-43.8727 20.0424L-38.1227 14.2165C-32.2565 8.27316 -31.4967 7.72953 -30.4853 8.75434ZM130.679 9.01903C131.202 9.43562 131.468 9.93893 131.468 10.5129C131.468 11.4722 130.29 12.6353 129.319 12.6353C128.556 12.6353 127.278 11.3061 127.278 10.5129C127.278 9.71972 128.556 8.3905 129.319 8.3905C129.634 8.3905 130.246 8.67338 130.679 9.01903ZM-19.6525 15.6809C-19.6525 16.5902 -22.5591 20.8231 -23.1776 20.8146C-23.8138 20.8065 -26.9443 16.0911 -26.715 15.4862C-26.5897 15.1552 -25.7889 15.0609 -23.1031 15.0609C-19.8267 15.0609 -19.6525 15.0921 -19.6525 15.6809ZM130.72 19.4572V23.3988H129.373H128.026L127.942 19.778C127.895 17.7866 127.927 15.9711 128.013 15.7431C128.121 15.4605 128.576 15.3586 129.445 15.4223L130.72 15.5157V19.4572Z" fill="#0084FA"/>
</g>
<defs>
<clipPath id="clip0">
<rect width="46" height="32" fill="white"/>
</clipPath>
</defs>
</svg>
