<svg width="693" height="28" viewBox="0 0 693 28" fill="none" xmlns="http://www.w3.org/2000/svg">
<path fill-rule="evenodd" clip-rule="evenodd" d="M511.388 0.216611C506.721 0.888057 502.206 4.0395 499.827 8.28509C499.305 9.21642 498.75 11.4519 498.593 13.2541C497.895 21.2786 504.895 27.9713 514.014 27.9999C522.81 28.027 529.339 22.1043 529.445 14.0035C529.495 10.2384 527.619 6.46328 524.348 3.74249C520.567 0.596885 516.477 -0.515826 511.388 0.216611ZM520.051 2.5375C527.152 5.58817 530.147 13.4604 526.628 19.8248C524.027 24.5281 519.701 26.9678 513.975 26.962C506.088 26.954 500.028 21.3332 500.003 14.0035C499.971 4.67647 510.721 -1.47155 520.051 2.5375ZM6.38031 7.41794C0.718899 12.0024 -0.427866 13.1687 0.124537 13.7823C0.496446 14.1955 1.41558 14.5339 2.16687 14.5339C3.51885 14.5339 3.5338 14.5938 3.5338 20.0842C3.5338 26.4963 3.85225 26.9089 8.58302 26.6279L11.2939 26.4671L11.5813 22.4894L11.8687 18.5116L14.3117 18.3488L16.7547 18.1855V22.1372C16.7547 26.4603 16.9754 26.7387 20.3944 26.7249C24.8062 26.7074 24.8022 26.7132 24.8022 20.3059C24.8022 14.9693 24.8855 14.5339 25.9047 14.5339C27.5481 14.5339 28.8259 13.9722 28.8259 13.2504C28.8259 12.3721 15.3349 1.80506 14.2134 1.80506C13.7179 1.80506 10.1925 4.33067 6.38031 7.41794ZM334.996 2.90451L333.481 4.00344V12.1037C333.481 22.8845 332.571 22.1733 346.64 22.3876C356.874 22.5435 357.457 22.4979 358.94 21.4212L360.497 20.291V12.1472V4.00344L358.983 2.90451C357.576 1.88356 356.72 1.80506 346.989 1.80506C337.258 1.80506 336.402 1.88356 334.996 2.90451ZM172.682 3.14636C171.064 4.19172 170.453 7.16124 171.414 9.30287C172.242 11.147 174.752 12.3806 176.904 12.0008C180.289 11.4042 181.758 6.51366 179.387 3.73295C177.994 2.09889 174.743 1.81408 172.682 3.14636ZM666.877 13.9468C666.877 24.0455 666.995 25.6 667.786 25.88C668.972 26.3001 690.649 26.3001 691.834 25.88C692.625 25.6 692.744 24.0455 692.744 13.9468V2.33543H679.81H666.877V13.9468ZM20.9221 8.04961C24.0049 10.51 26.5266 12.737 26.5266 12.9985C26.5266 13.2594 25.8886 13.4731 25.1085 13.4731C23.6945 13.4731 23.6899 13.4906 23.5278 19.4398L23.3651 25.4064L20.9468 25.5682L18.5286 25.7305L18.3601 21.5904L18.1917 17.4509L14.3364 17.2944L10.4811 17.1385L10.3127 21.2722L10.1442 25.4064L7.72022 25.5687L5.29677 25.731L5.13353 19.7347L4.97085 13.7383L3.35618 13.5676C2.46808 13.4737 1.82428 13.1671 1.92545 12.8871C2.29736 11.8576 14.1312 2.94535 14.7146 3.25562C15.0463 3.4317 17.8394 5.58923 20.9221 8.04961ZM357.623 3.55156C359.044 4.21399 359.062 4.30893 359.224 11.8969C359.44 22.02 360.203 21.4287 346.925 21.4287C333.974 21.4287 334.631 21.9187 334.631 12.2485C334.631 5.11562 334.943 3.88888 336.93 3.23387C338.815 2.61228 356.181 2.87906 357.623 3.55156ZM178.534 4.57517C181.291 8.20607 177.031 12.8234 173.582 9.94355C172.265 8.84357 172.176 5.39088 173.434 4.22937C174.775 2.99255 177.472 3.175 178.534 4.57517ZM691.594 6.29887V9.2021L683.116 9.34848L674.637 9.49539V13.7383V17.9813L679.092 18.1361L683.547 18.291V21.7315V25.172L675.93 25.024L668.314 24.876L668.158 14.1361L668.003 3.39616H679.798H691.594V6.29887ZM184.449 5.38504C181.386 8.5211 184.459 13.7733 188.523 12.3477C193.138 10.729 192.131 4.4569 187.256 4.4569C186.174 4.4569 184.964 4.8568 184.449 5.38504ZM189.203 6.31478C190.892 8.19334 189.598 11.3517 187.139 11.3517C184.828 11.3517 183.73 7.98968 185.505 6.35084C186.647 5.29806 188.274 5.28215 189.203 6.31478ZM511.79 6.15408C511.411 6.50412 511.1 7.53038 511.1 8.43466C511.1 10.441 511.998 11.3517 513.975 11.3517C515.951 11.3517 516.849 10.441 516.849 8.43466C516.849 6.42828 515.951 5.51763 513.975 5.51763C513.153 5.51763 512.17 5.80403 511.79 6.15408ZM343.828 12.1472C343.828 14.3838 344.024 16.134 344.263 16.0364C346.405 15.1687 350.724 12.5678 350.724 12.1472C350.724 11.7266 346.405 9.12572 344.263 8.25804C344.024 8.16046 343.828 9.91067 343.828 12.1472ZM505.467 8.80591C503.927 10.2268 505.124 12.4124 507.441 12.4124C508.99 12.4124 509.7 10.7789 508.813 9.25036C508.114 8.04589 506.52 7.83428 505.467 8.80591ZM519.476 9.00268C517.818 10.5333 518.803 12.4124 521.264 12.4124C522.84 12.4124 523.695 10.1859 522.591 8.95813C521.677 7.94194 520.61 7.95732 519.476 9.00268ZM691.307 17.7161V24.876L688.315 25.0357L685.323 25.1948L685.153 21.3231L684.984 17.4509L680.529 17.296L676.074 17.1412V14.0698C676.074 12.3801 676.254 10.8324 676.474 10.6293C676.693 10.4267 680.121 10.327 684.09 10.4087L691.307 10.5561V17.7161ZM509.063 15.3056C508.186 16.1138 507.652 17.2154 507.652 18.212C507.652 20.2231 508.552 20.4698 515.124 20.2592L520.01 20.1027L520.19 18.3881C520.322 17.1205 519.991 16.3244 518.923 15.3384C517.694 14.2045 516.949 14.0035 513.975 14.0035C511.023 14.0035 510.251 14.2082 509.063 15.3056ZM168.283 16.3005C166.151 18.1558 165.429 19.8503 165.732 22.2804C166.044 24.7737 167.747 25.1985 176.746 25.0272C183.534 24.8983 184.803 24.7403 185.431 23.9479C186.009 23.2181 187.019 23.0198 190.155 23.0198C194.47 23.0198 195.524 22.517 195.524 20.457C195.524 18.7498 193.582 15.915 191.939 15.2244C191.205 14.9157 186.141 14.6484 180.453 14.6177L170.28 14.5636L168.283 16.3005ZM504.309 14.8967C503.115 15.3374 502.34 17.7187 503.111 18.5763C504.181 19.766 505.352 19.4371 505.352 17.9463C505.352 17.1979 505.62 16.1239 505.947 15.5596C506.563 14.4989 506.002 14.2719 504.309 14.8967ZM522.002 15.5596C522.329 16.1239 522.597 17.2154 522.597 17.9855C522.597 19.5687 524.053 19.6753 525.082 18.1674C525.875 17.0059 524.161 14.5339 522.564 14.5339C521.598 14.5339 521.505 14.7036 522.002 15.5596ZM182.314 17.0531C183.44 17.9898 184.19 19.2218 184.409 20.4963C184.978 23.7957 184.329 24.0805 176.244 24.0805C172.357 24.0805 168.767 23.9357 168.267 23.7586C167.626 23.5316 167.358 22.7387 167.358 21.0659C167.358 19.1529 167.682 18.396 169.038 17.1449C170.634 15.6731 170.966 15.5946 175.639 15.5946C180.2 15.5946 180.689 15.7018 182.314 17.0531ZM192.088 17.0531C193.199 17.976 193.888 19.0961 193.965 20.1027L194.087 21.6938L189.919 21.8498L185.752 22.0057V20.4926C185.752 19.6604 185.372 18.5164 184.908 17.95C183.364 16.0661 183.818 15.5946 187.18 15.5946C189.81 15.5946 190.623 15.8365 192.088 17.0531ZM340.379 25.6716C340.379 25.9957 343.072 26.202 347.31 26.202C351.785 26.202 354.116 26.0142 353.887 25.6716C353.684 25.3682 350.72 25.1412 346.955 25.1412C342.954 25.1412 340.379 25.3491 340.379 25.6716Z" fill="#65676B"/>
</svg>
