<svg width="125" height="35" viewBox="0 0 125 35" fill="none" xmlns="http://www.w3.org/2000/svg">
<circle cx="17.5" cy="17.5" r="17.5" fill="#E4E6EB"/>
<circle cx="61.25" cy="17.5" r="17.5" fill="#E4E6EB"/>
<circle cx="107.5" cy="17.5" r="17.5" fill="#E4E6EB"/>
<path fill-rule="evenodd" clip-rule="evenodd" d="M8.39381 9.68565C7.66574 10.4477 7.5 10.7914 7.5 11.5375C7.5 12.2977 7.6583 12.6113 8.42984 13.3796C9.16534 14.112 9.53216 14.3056 10.1849 14.3056C11.8505 14.3056 13.079 13.1264 13.079 11.5278C13.079 9.91574 11.8965 8.75 10.2616 8.75C9.42616 8.75 9.16069 8.88287 8.39381 9.68565ZM15.3674 9.27199C13.1994 11.097 14.3266 14.3056 17.1355 14.3056C17.7882 14.3056 18.155 14.112 18.8905 13.3796C19.6621 12.6113 19.8204 12.2977 19.8204 11.5375C19.8204 10.7914 19.6546 10.4477 18.9266 9.68565C18.1455 8.86806 17.9035 8.75023 17.0088 8.75116C16.287 8.75185 15.8025 8.90579 15.3674 9.27199ZM21.8288 9.51481C20.4229 10.835 20.4229 12.2206 21.8288 13.5407C22.7468 14.403 23.7931 14.5461 24.9235 13.9639C25.6897 13.5694 26.5617 12.2826 26.5617 11.5468C26.5617 10.1324 25.0872 8.75 23.5785 8.75C22.8393 8.75 22.4723 8.91042 21.8288 9.51481ZM60.2683 10.6137C58.9624 10.8815 57.5323 11.8632 56.9088 12.9199C56.5069 13.6009 56.4327 14.1241 56.4327 16.2731C56.4327 18.6731 56.396 18.8725 55.7935 19.7412C54.991 20.8984 54.9176 22.3537 55.6291 22.9951C56.3035 23.6028 59.5082 23.7238 62.2758 23.2461C66.6005 22.4995 69.6288 21.1963 69.944 19.9461C70.1753 19.0278 69.5028 17.8956 68.3133 17.2014C67.2542 16.5833 67.1245 16.359 66.5585 14.1676C66.2507 12.9755 65.1321 11.4188 64.2611 10.9701C63.3719 10.5123 61.5548 10.35 60.2683 10.6137ZM103.041 15.2315C102.081 16.187 102.38 16.8019 105.098 19.4694C106.778 21.1174 107.793 21.9444 108.137 21.9444C108.478 21.9444 109.51 21.1118 111.193 19.4773C113.962 16.7889 114.225 16.235 113.196 15.2718C112.681 14.7903 112.46 14.7685 108.082 14.7685C103.816 14.7685 103.474 14.7998 103.041 15.2315ZM9.18998 15.5748C8.28734 15.9653 7.50209 17.162 7.50093 18.1486C7.49907 19.7271 9.41384 21.2875 10.8976 20.9167C11.2431 20.8303 11.8751 20.4118 12.3024 19.9863C12.9509 19.3405 13.079 19.0426 13.079 18.1794C13.079 17.0155 12.523 16.1303 11.4427 15.5741C10.6273 15.1542 10.161 15.1544 9.18998 15.5748ZM15.7214 15.6755C14.6704 16.3137 14.2413 17.0456 14.2413 18.1998C14.2413 19.0398 14.3741 19.3451 15.018 19.9863C15.4452 20.4118 16.0773 20.8303 16.4227 20.9167C17.9065 21.2875 19.8213 19.7271 19.8194 18.1486C19.8183 17.1382 19.023 15.9574 18.0792 15.5648C17.0222 15.125 16.5947 15.1451 15.7214 15.6755ZM22.3235 15.7081C21.3753 16.2067 20.7502 17.1745 20.7502 18.144C20.7502 19.6509 22.7317 21.2706 24.1434 20.9178C24.9698 20.7113 26.2574 19.4169 26.468 18.5808C26.6854 17.7188 26.0149 16.4657 24.9582 15.7595C24.0023 15.1204 23.4611 15.11 22.3235 15.7081ZM8.42984 22.8704C7.6583 23.6387 7.5 23.9523 7.5 24.7125C7.5 25.4586 7.66574 25.8023 8.39381 26.5644C9.12443 27.3289 9.44499 27.5 10.1489 27.5C11.8502 27.5 13.079 26.3352 13.079 24.7222C13.079 23.1236 11.8505 21.9444 10.1849 21.9444C9.53216 21.9444 9.16534 22.138 8.42984 22.8704ZM15.581 22.3067C14.348 22.9729 13.8864 24.756 14.594 26.1188C15.0308 26.9597 16.0389 27.5 17.1715 27.5C17.8754 27.5 18.1959 27.3289 18.9266 26.5644C19.6546 25.8023 19.8204 25.4586 19.8204 24.7125C19.8204 23.9523 19.6621 23.6387 18.8905 22.8704C18.1294 22.1125 17.8024 21.9461 17.089 21.9537C16.6096 21.9588 15.9308 22.1176 15.581 22.3067ZM21.8288 22.7093C20.4229 24.0294 20.4229 25.415 21.8288 26.7352C22.4723 27.3396 22.8393 27.5 23.5785 27.5C25.0872 27.5 26.5617 26.1176 26.5617 24.7032C26.5617 23.9674 25.6897 22.6806 24.9235 22.2861C23.7931 21.7039 22.7468 21.847 21.8288 22.7093ZM60.5045 24.3669L58.2999 24.6065L58.9668 25.1273C59.9438 25.8903 61.22 25.8289 62.1824 24.9729C62.5997 24.6014 62.8891 24.2593 62.8252 24.2123C62.7615 24.1655 61.717 24.2352 60.5045 24.3669Z" fill="black"/>
</svg>
