<svg width="46" height="32" viewBox="0 0 46 32" fill="none" xmlns="http://www.w3.org/2000/svg">
<g clip-path="url(#clip0)">
<path fill-rule="evenodd" clip-rule="evenodd" d="M-108.767 0.225068C-115.147 1.33841 -120.235 6.34634 -121.595 12.8515C-122.135 15.4323 -122.135 16.5086 -121.595 19.0895C-120.413 24.7396 -116.657 29.0571 -111.144 31.1006L-109.019 31.8884L-92.8937 31.9811C-82.5451 32.0406 -76.0059 31.9584 -74.6395 31.7513C-66.2349 30.4773 -60.0177 22.1139 -61.2745 13.7723C-61.6639 11.1872 -63.0829 7.97906 -64.811 5.77663C-66.2875 3.89498 -69.4258 1.72499 -72.0615 0.763245C-74.006 0.0534582 -74.012 0.0534576 -90.6149 0.00433947C-99.7494 -0.022342 -107.918 0.076804 -108.767 0.225068ZM-44.25 4.65358C-45.9216 6.18382 -46.4031 7.25563 -46.398 9.43532C-46.3903 12.6704 -44.4508 16.8758 -41.1866 20.7352C-39.0012 23.3191 -36.5241 25.204 -33.1593 26.8437C-30.7884 27.9992 -29.9636 28.2485 -28.1909 28.3464C-26.5971 28.434 -25.8113 28.3331 -25.0488 27.9422C-22.873 26.8268 -21.7879 25.2701 -21.7879 23.2642C-21.7879 22.1715 -21.9258 21.9362 -23.0597 21.099C-25.193 19.5233 -26.4445 19.0024 -28.0948 19.0024C-29.5249 19.0024 -29.7213 19.0952 -30.786 20.2753L-31.9345 21.5484L-33.575 20.4035C-35.4207 19.1155 -37.4529 17.0177 -38.6909 15.1221L-39.5216 13.8502L-38.2857 12.4916C-37.2348 11.3364 -37.0504 10.9386 -37.0561 9.83736C-37.0636 8.36776 -37.7441 6.70775 -39.1096 4.82792C-39.9938 3.61088 -40.1285 3.53933 -41.5391 3.53933C-42.8394 3.53933 -43.1904 3.68365 -44.25 4.65358ZM69.0832 4.56747C65.7092 6.00584 63.8691 7.77895 62.3558 11.0508C61.6442 12.5889 61.5526 13.1498 61.5526 15.9705C61.5526 18.8997 61.6262 19.3114 62.4764 21.1248C63.6955 23.7263 65.7029 25.7735 68.2184 26.9808C70.1009 27.8846 70.443 27.9468 73.5225 27.9468C76.559 27.9468 76.9534 27.8777 78.6097 27.0548C82.1642 25.2892 84.6833 21.854 85.3853 17.8148C86.2654 12.752 83.3836 7.25229 78.6136 4.89098C77.0596 4.12177 76.424 3.992 73.8257 3.91347C71.1965 3.83404 70.6153 3.91408 69.0832 4.56747ZM8.58576 5.20237C7.92741 5.45008 7.36602 5.65474 7.33849 5.65717C7.31066 5.65959 7.00752 6.12136 6.66518 6.68289C6.07387 7.65191 6.04215 8.1252 6.04215 15.9705C6.04215 27.5729 5.57143 27.0372 15.7677 27.0372C22.9682 27.0372 23.2591 26.9732 24.5001 25.1213C24.9938 24.3839 25.0444 23.5328 25.0444 15.9705C25.0444 8.40808 24.9938 7.55701 24.5001 6.81963C23.2779 4.99559 22.9179 4.91069 16.067 4.82792C11.1036 4.76819 9.53108 4.84702 8.58576 5.20237ZM29.3835 9.3483C28.1491 10.2227 27.0383 11.0811 26.915 11.256C26.7917 11.431 26.7244 13.6176 26.7654 16.1154L26.8399 20.657L28.9346 22.2567C31.1036 23.913 32.0507 24.3481 32.829 24.0455C33.2225 23.8924 33.2728 22.7979 33.204 15.9022L33.1241 7.9357L32.376 7.84747C31.866 7.78713 30.9129 8.26528 29.3835 9.3483ZM-86.4853 8.75434C-85.6237 9.62724 -86.23 10.4353 -92.6258 16.9401C-97.6532 22.0529 -99.2958 23.5504 -99.8778 23.5504C-101.006 23.5504 -107.373 17.0605 -107.373 15.9101C-107.373 15.113 -106.687 14.4545 -105.856 14.4545C-105.658 14.4545 -104.231 15.7118 -102.685 17.2484L-99.8727 20.0424L-94.1227 14.2165C-88.2565 8.27316 -87.4967 7.72953 -86.4853 8.75434ZM74.6791 9.01903C75.2019 9.43562 75.4676 9.93893 75.4676 10.5129C75.4676 11.4722 74.2904 12.6353 73.319 12.6353C72.5563 12.6353 71.2782 11.3061 71.2782 10.5129C71.2782 9.71972 72.5563 8.3905 73.319 8.3905C73.6336 8.3905 74.2455 8.67338 74.6791 9.01903ZM-75.6525 15.6809C-75.6525 16.5902 -78.5591 20.8231 -79.1776 20.8146C-79.8138 20.8065 -82.9443 16.0911 -82.715 15.4862C-82.5897 15.1552 -81.7889 15.0609 -79.1031 15.0609C-75.8267 15.0609 -75.6525 15.0921 -75.6525 15.6809ZM74.7195 19.4572V23.3988H73.3729H72.0263L71.9416 19.778C71.8949 17.7866 71.9272 15.9711 72.0134 15.7431C72.1205 15.4605 72.5757 15.3586 73.445 15.4223L74.7195 15.5157V19.4572Z" fill="#0084FA"/>
</g>
<defs>
<clipPath id="clip0">
<rect width="46" height="32" fill="white"/>
</clipPath>
</defs>
</svg>
