<svg width="25" height="25" viewBox="0 0 20 20" fill="none" xmlns="http://www.w3.org/2000/svg">
<path d="M19.9375 11.0002C19.9385 9.51325 19.5685 8.04956 18.861 6.74171C18.1536 5.43387 17.1309 4.32321 15.8859 3.51034C14.6408 2.69748 13.2126 2.20811 11.7306 2.08655C10.2486 1.965 8.75978 2.21512 7.39888 2.81424C6.03799 3.41336 4.84807 4.34255 3.93694 5.51764C3.02582 6.69272 2.42226 8.07656 2.18097 9.54379C1.93967 11.011 2.06826 12.5153 2.55507 13.9202C3.04189 15.3252 3.87156 16.5866 4.96891 17.59C5.00294 17.6282 5.04117 17.6625 5.08286 17.6922C6.7145 19.1389 8.8196 19.9377 11.0002 19.9377C13.1809 19.9376 15.2859 19.1387 16.9175 17.6919C16.9589 17.6624 16.9968 17.6283 17.0307 17.5904C17.9469 16.7545 18.6787 15.7367 19.1792 14.6019C19.6797 13.4671 19.938 12.2404 19.9375 11.0002ZM3.4375 11.0002C3.43653 9.77499 3.73325 8.5679 4.30213 7.48278C4.87102 6.39766 5.69503 5.467 6.70326 4.77089C7.7115 4.07478 8.87377 3.63405 10.0901 3.48663C11.3064 3.33921 12.5403 3.48952 13.6856 3.92461C14.8309 4.35971 15.8534 5.06657 16.6651 5.98436C17.4767 6.90216 18.0532 8.00341 18.345 9.19337C18.6367 10.3833 18.635 11.6263 18.3399 12.8155C18.0448 14.0046 17.4653 15.1043 16.6511 16.0198C15.8847 14.9085 14.8066 14.049 13.5525 13.5495C14.2261 13.019 14.7175 12.2917 14.9586 11.4689C15.1997 10.646 15.1783 9.76853 14.8976 8.95838C14.6168 8.14823 14.0906 7.44571 13.3921 6.9485C12.6935 6.45129 11.8574 6.18411 11 6.18411C10.1426 6.18411 9.30647 6.45129 8.60794 6.9485C7.90941 7.44571 7.38317 8.14823 7.10241 8.95838C6.82165 9.76853 6.80032 10.646 7.04139 11.4689C7.28246 12.2917 7.77393 13.019 8.44748 13.5495C7.19342 14.049 6.11527 14.9085 5.34892 16.0198C4.11651 14.6384 3.43606 12.8514 3.4375 11.0002ZM8.25 10.3127C8.25 9.76879 8.41128 9.2371 8.71346 8.78487C9.01563 8.33263 9.44512 7.98016 9.94762 7.77202C10.4501 7.56388 11.003 7.50942 11.5365 7.61553C12.0699 7.72164 12.5599 7.98355 12.9445 8.36814C13.3291 8.75274 13.5911 9.24274 13.6972 9.77619C13.8033 10.3096 13.7488 10.8626 13.5407 11.3651C13.3325 11.8676 12.9801 12.2971 12.5278 12.5992C12.0756 12.9014 11.5439 13.0627 11 13.0627C10.2709 13.0619 9.57191 12.7719 9.05636 12.2563C8.54081 11.7408 8.25082 11.0418 8.25 10.3127ZM6.36651 16.9728C6.8642 16.1955 7.54945 15.5558 8.35915 15.1128C9.16886 14.6698 10.077 14.4376 11 14.4376C11.923 14.4376 12.8311 14.6698 13.6408 15.1128C14.4506 15.5558 15.1358 16.1955 15.6335 16.9728C14.3088 18.0032 12.6783 18.5627 11 18.5627C9.32167 18.5627 7.69123 18.0032 6.36651 16.9728Z" fill="#e3061b"/>
</svg>