<?xml version="1.0" encoding="UTF-8"?>
<!DOCTYPE svg PUBLIC "-//W3C//DTD SVG 1.1//EN" "http://www.w3.org/Graphics/SVG/1.1/DTD/svg11.dtd">
<!-- Creator: CorelDRAW X8 -->
<svg xmlns="http://www.w3.org/2000/svg" xml:space="preserve" width="45.5506mm" height="11.5992mm" version="1.1" style="shape-rendering:geometricPrecision; text-rendering:geometricPrecision; image-rendering:optimizeQuality; fill-rule:evenodd; clip-rule:evenodd"
viewBox="0 0 4555 1160"
 xmlns:xlink="http://www.w3.org/1999/xlink">
 <defs>
  <style type="text/css">
   <![CDATA[
    .fil0 {fill:#FEFEFE}
   ]]>
  </style>
 </defs>
 <g id="Layer_x0020_1">
  <metadata id="CorelCorpID_0Corel-Layer"/>
  <g id="_1011919792">
   <path class="fil0" d="M1791 910c71,0 64,-45 64,-98 0,-50 0,-101 0,-151 4,3 9,11 12,15 5,5 8,10 12,15l70 91c8,11 15,20 24,30l58 76c3,3 3,4 6,7 3,5 2,5 8,6 1,-5 7,-10 10,-15 5,-6 8,-9 12,-15l138 -178c5,-7 19,-26 24,-30 0,50 0,99 0,149 0,24 -2,51 6,68 19,43 89,39 105,-2 7,-19 4,-52 4,-77l0 -478c-7,5 -148,185 -152,189 -12,16 -146,185 -151,189 -1,-6 -4,-8 -8,-12l-216 -272c-8,-10 -69,-89 -76,-94l0 478c0,39 -7,79 20,97 8,5 18,12 30,12z"/>
   <path class="fil0" d="M3138 797l-98 0 0 -357c96,0 176,-11 250,45 41,30 63,70 63,133 0,117 -102,179 -215,179zm-213 113l226 0c57,0 130,-18 177,-48 90,-56 139,-141 139,-254 0,-87 -37,-156 -102,-209 -29,-24 -62,-41 -101,-55 -39,-12 -86,-19 -138,-19l-201 0 0 585z"/>
   <path class="fil0" d="M1301 633l-277 -210c-15,-12 -119,-94 -128,-96l0 477c0,26 -3,57 6,75 13,25 46,35 73,25 6,-2 11,-5 16,-8 30,-23 20,-80 20,-131 0,-67 0,-133 0,-200l119 100c3,3 4,4 6,7 5,3 9,7 13,10 6,4 7,7 13,11 9,7 16,14 25,21l126 107c4,4 7,7 12,11l82 70c5,4 2,3 8,4l0 -477c0,-46 7,-72 -24,-94 -29,-20 -75,-8 -86,26 -8,23 -4,59 -4,87 0,62 0,123 0,185z"/>
   <path class="fil0" d="M4003 440c0,10 43,123 49,138l29 83 -157 0c4,-16 32,-91 38,-111l39 -107c0,0 0,-1 0,-1l2 -2zm-265 409l0 13c0,24 28,48 53,48 40,0 50,-16 63,-55 4,-13 10,-26 15,-40 3,-7 13,-34 14,-41l238 0c5,11 10,27 14,39 7,19 21,63 31,77 27,40 101,16 101,-28 0,-31 -12,-52 -23,-85 -8,-24 -17,-47 -26,-72 -25,-72 -52,-145 -76,-217l-26 -72c-10,-27 -14,-48 -32,-67 -35,-39 -123,-40 -160,-2 -24,25 -44,102 -58,138 -25,65 -54,151 -78,218 -5,12 -50,135 -50,146z"/>
   <path class="fil0" d="M2440 910l355 0c17,0 27,-6 36,-16 26,-27 19,-83 -24,-95 -17,-4 -225,-2 -254,-2l0 -159c42,0 85,0 127,0 26,0 54,2 67,-29 12,-27 6,-55 -13,-71 -13,-11 -28,-13 -52,-13 -43,0 -86,0 -129,0l0 -85c76,0 152,-1 227,0 38,0 60,-14 66,-49 5,-32 -21,-67 -50,-64l-356 0 0 583z"/>
   <path class="fil0" d="M288 377l0 313c0,34 10,68 20,93 11,27 27,47 47,67 38,38 111,62 165,62l3 0 8 0c45,0 80,-1 123,-19 29,-11 68,-34 86,-58 17,-22 21,-23 34,-54 11,-24 20,-62 20,-96l0 -310c0,-15 -8,-25 -17,-34 -19,-18 -48,-20 -71,-7 -33,19 -26,56 -26,98l0 249c0,84 -58,118 -144,118 -54,0 -94,-17 -116,-50 -24,-39 -18,-88 -18,-148 0,-56 0,-111 0,-167 0,-44 6,-77 -25,-99 -4,-3 -8,-5 -14,-7 -37,-11 -75,12 -75,49z"/>
   <path class="fil0" d="M3561 379l0 479c0,31 28,52 50,52 20,0 34,0 50,-17 9,-9 14,-23 14,-40l0 -469c0,-80 -114,-74 -114,-5z"/>
   <path class="fil0" d="M1522 377l0 483c0,27 25,50 52,50 50,0 63,-25 63,-73l0 -440c0,-34 -6,-53 -32,-65 -38,-20 -83,8 -83,45z"/>
   <path class="fil0" d="M1859 357c15,0 23,-10 37,-19 33,-22 86,-43 129,-43 70,0 104,5 164,40 13,8 26,20 37,20 10,0 23,-12 23,-21 0,-23 -63,-54 -83,-62 -171,-70 -332,34 -330,65 1,13 10,20 23,20z"/>
   <path class="fil0" d="M1886 393c0,15 10,20 23,20 8,0 22,-11 28,-15l30 -15c58,-24 132,-18 181,18 16,11 26,24 44,12 42,-30 -74,-90 -145,-90 -56,0 -93,12 -136,40 -10,6 -25,15 -25,30z"/>
   <path class="fil0" d="M1930 452c0,7 2,11 5,15 11,12 27,6 37,-2 43,-32 96,-32 139,1 7,6 10,11 22,11 18,0 46,-28 -22,-62 -42,-21 -91,-24 -135,-3 -13,7 -46,24 -46,40z"/>
   <path class="fil0" d="M2440 910l0 -583 356 0c-3,-2 2,0 -3,-1l-354 -1c0,59 -3,576 1,585z"/>
  </g>
 </g>
</svg>
